<svg xmlns="http://www.w3.org/2000/svg" id="SvgjsSvg14395" width="4096" height="2329.891093841231" version="1.1" xmlns:xlink="http://www.w3.org/1999/xlink" xmlns:svgjs="http://svgjs.com/svgjs"><defs id="SvgjsDefs14396"></defs><g id="SvgjsG14397" transform="translate(328, 327.9999999999999) scale(34.4)" opacity="1"><defs id="SvgjsDefs4704"></defs><g id="SvgjsG4705" transform="scale(0.21645021645021645)" opacity="1"><g id="SvgjsG4706" class="cDU2i8msh" transform="translate(160.66561400332935, -2.025630316704111) scale(1.4066877199334127)" light-content="false" non-strokable="false" fill="#4a4a4a" fill-rule="evenodd" clip-rule="evenodd"><path d="M36.385 69.319a.671.671 0 0 1 1.296-.341 30.649 30.649 0 0 0 6.165 11.841c.22.26.414.524.584.791 1.546 2.414 1.64 5.561.811 8.544-.729 2.628-2.183 5.145-3.988 6.916 2.444-.432 4.632-1.716 6.836-3.009 3.616-2.123 7.27-4.268 12.295-3.111a30.494 30.494 0 0 0 6.905.78c8.458 0 16.115-3.428 21.658-8.97 5.543-5.543 8.971-13.2 8.971-21.658 0-8.458-3.428-16.115-8.971-21.658-5.543-5.542-13.2-8.971-21.658-8.971a.671.671 0 0 1 0-1.342c8.829 0 16.822 3.578 22.607 9.364 5.786 5.786 9.365 13.778 9.365 22.607 0 8.828-3.579 16.821-9.365 22.607-5.785 5.786-13.778 9.364-22.607 9.364-1.221 0-2.433-.07-3.631-.205a31.872 31.872 0 0 1-3.573-.611c-4.51-1.039-7.933.97-11.319 2.958-2.96 1.737-5.893 3.458-9.568 3.339a.67.67 0 0 1-.379-1.234c.321-.205.628-.432.92-.679 1.904-1.602 3.465-4.154 4.212-6.844.734-2.644.672-5.4-.648-7.463a6.277 6.277 0 0 0-.48-.655 31.777 31.777 0 0 1-6.438-12.36zm24.417 1.544c-3.676.119-6.609-1.602-9.568-3.339-3.387-1.988-6.809-3.997-11.319-2.958a32.191 32.191 0 0 1-7.205.817c-8.828 0-16.821-3.579-22.607-9.365C4.317 50.233.739 42.24.739 33.411c0-8.828 3.578-16.821 9.364-22.607C15.889 5.018 23.882 1.44 32.71 1.44c8.829 0 16.822 3.578 22.607 9.364 5.786 5.786 9.365 13.779 9.365 22.607 0 1.72-.137 3.41-.399 5.057 4.596 1.626 9.41 3.801 13.263 6.679 6.291 4.697 10.046 11.224 6.34 20.214-1.466 3.556-4.349 6.324-7.936 7.711-3.362 1.299-7.338 1.386-11.34-.229a.67.67 0 0 1 .499-1.243c3.668 1.48 7.298 1.406 10.358.223a12.886 12.886 0 0 0 3.907-2.376c-1.74 1.088-3.747 1.721-5.864 1.721-3.216 0-6.126-1.359-8.232-3.557-2.1-2.191-3.399-5.214-3.399-8.55 0-2.546.993-4.854 2.597-6.528 1.61-1.68 3.835-2.719 6.294-2.719 2.459 0 4.684 1.039 6.294 2.719a9.411 9.411 0 0 1 2.596 6.528 6.497 6.497 0 0 1-1.793 4.507c-1.115 1.163-2.655 1.882-4.357 1.882-1.703 0-3.243-.719-4.357-1.882a6.494 6.494 0 0 1-1.794-4.507c0-.967.379-1.846.991-2.485a3.34 3.34 0 0 1 2.42-1.045 3.34 3.34 0 0 1 2.42 1.045c.612.639.991 1.518.991 2.485a.671.671 0 1 1-1.343 0c0-.611-.234-1.161-.613-1.557a2.012 2.012 0 0 0-1.455-.63c-.567 0-1.082.241-1.455.63a2.243 2.243 0 0 0-.613 1.557c0 1.401.541 2.666 1.416 3.579a4.684 4.684 0 0 0 3.392 1.468 4.682 4.682 0 0 0 3.391-1.468 5.155 5.155 0 0 0 1.416-3.579c0-2.19-.847-4.17-2.218-5.6-1.365-1.424-3.249-2.304-5.329-2.304-2.08 0-3.964.88-5.329 2.304-1.371 1.43-2.218 3.41-2.218 5.6 0 2.98 1.154 5.674 3.02 7.622 1.861 1.941 4.43 3.142 7.267 3.142 2.821 0 5.428-1.286 7.338-3.31a11.59 11.59 0 0 0 3.063-6.457c.463-4.403-1.202-8.048-4.023-11.056a16.833 16.833 0 0 0-2.52-1.959c-1.203-.773-2.561-1.47-4.07-2.135-2.85-1.257-6.143-2.356-9.682-3.289a31.944 31.944 0 0 1-6.44 12.37c-.17.201-.329.42-.479.654-1.321 2.063-1.383 4.819-.648 7.464.747 2.69 2.308 5.241 4.211 6.844.292.246.6.473.92.678a.67.67 0 0 1-.378 1.234zm3.239-31.06c-.068.337-.142.672-.221 1.005 3.511.924 6.786 2.012 9.635 3.254-2.956-1.721-6.23-3.124-9.414-4.259zm-55.734-9.6a.67.67 0 1 1 .409-1.274c2.34.755 6.716 1.777 11.758 2.954l1.063.248c-2.087-2.164-3.969-4.236-5.292-6.034-1.949-2.648-1.953-5.126-1.015-6.895a5.073 5.073 0 0 1 2.718-2.385c1.134-.414 2.401-.389 3.536.213.612.324 1.185.817 1.673 1.5.178-.047.359-.083.541-.108a4.44 4.44 0 0 1 2.154.229c.696.26 1.322.703 1.792 1.334.409.547.699 1.232.813 2.057.212 1.536.235 3.826.146 6.461.491.177.992.353 1.502.526.995-1.603 1.96-3.17 2.857-4.646-1.675-5.446-2.822-10.006-2.561-11.272.371-1.797 1.862-2.741 3.546-2.939a6.003 6.003 0 0 1 2.387.211c.782.233 1.509.629 2.074 1.176 1.091 1.059 1.571 2.634.71 4.635-.673 1.567-2.455 4.657-4.701 8.367a287.592 287.592 0 0 0 2.102 6.437l.312.088c1.878-3.568 3.609-6.493 4.544-7.446.253-.258.525-.479.809-.664a4.73 4.73 0 0 1 3.192-.712 4.955 4.955 0 0 1 2.83 1.35c.224.22.425.463.598.728.66 1.015.851 2.366.465 3.688-.339 1.16-1.12 2.299-2.415 3.165-1.011.674-2.551 1.215-4.622 1.332a759.74 759.74 0 0 0 6.805 1.701c2.585.638 5.107 1.261 7.531 1.894a99.376 99.376 0 0 1 6.426 1.903c.227-1.504.345-3.045.345-4.614 0-8.457-3.428-16.115-8.971-21.657-5.543-5.543-13.2-8.971-21.658-8.971-8.457 0-16.115 3.428-21.657 8.971-5.543 5.542-8.971 13.2-8.971 21.657 0 8.458 3.428 16.115 8.971 21.658 5.542 5.543 13.2 8.971 21.657 8.971a30.531 30.531 0 0 0 6.906-.78c5.024-1.158 8.679.988 12.295 3.11 2.203 1.293 4.392 2.578 6.835 3.009-1.805-1.771-3.258-4.288-3.988-6.916-.828-2.982-.734-6.13.811-8.544.171-.266.365-.53.584-.791a30.576 30.576 0 0 0 6.165-11.84c-5.667-1.405-11.886-2.391-17.886-2.917 2.43.923 4.275 1.852 5.194 2.764.932.925 1.57 2.062 1.734 3.301.149 1.125-.092 2.317-.856 3.487-.369.567-.894 1.071-1.51 1.47a6.112 6.112 0 0 1-2.807.966c-1.028.082-2.075-.122-2.985-.716a4.653 4.653 0 0 1-1.363-1.384c-.797-1.227-2.464-5.316-4.285-10.292a99.325 99.325 0 0 0-3.203-.041 164.31 164.31 0 0 0-1.896 4.132c2.419 2.624 4.194 4.893 4.507 6.395.391 1.868-.29 3.134-1.403 3.847-.581.372-1.279.586-2.001.65a5.321 5.321 0 0 1-2.114-.237c-1.407-.462-2.521-1.525-2.526-3.116-.003-1.031 1.048-3.896 2.556-7.37a169.682 169.682 0 0 0-3.524-3.631 677.48 677.48 0 0 1-.623 6.827c-.257 2.709-.45 4.753-.458 5.445-.018 1.828-1.023 2.892-2.38 3.339-.958.315-2.094.297-3.153.008-1.06-.29-2.056-.856-2.733-1.639-.935-1.081-1.282-2.533-.437-4.208a6.092 6.092 0 0 1-.348-.109 4.92 4.92 0 0 1-2.069-1.379c-1.205-1.373-1.439-2.63-1.097-3.755.331-1.091 1.207-2.018 2.253-2.786 1.512-1.11 3.972-1.925 7.077-2.461.045-1.032.072-2.099.083-3.172l-.781-.788c-1.058-.249-2.1-.492-3.115-.729-5.055-1.18-9.445-2.205-11.862-2.986zm14.741 2.282l1.025.241a207.325 207.325 0 0 0-.075-4.644 33.128 33.128 0 0 1-2.048-1.02 4.517 4.517 0 0 1-1.485-1.259 4.197 4.197 0 0 1-.819-2.507 5.106 5.106 0 0 1 .631-2.456 4.857 4.857 0 0 1 1.338-1.571 4.43 4.43 0 0 1 .724-.438 3.976 3.976 0 0 0-1.245-1.061c-.915-.484-1.94-.502-2.861-.166a4.223 4.223 0 0 0-2.262 1.988c-.803 1.514-.777 3.665.949 6.01 1.485 2.018 3.704 4.406 6.128 6.883zm1.861.438c.695.165 1.395.332 2.097.501.093-1.374.17-2.724.225-4.003a55.308 55.308 0 0 1-2.387-.963c.035 1.404.062 2.921.065 4.465zm12.744-1.609l.02.005c1.167.234 2.231.355 3.193.386 2.59.086 4.422-.471 5.522-1.205 1.119-.748 1.79-1.719 2.078-2.703.316-1.085.167-2.183-.364-2.999a3.429 3.429 0 0 0-.483-.587 4.108 4.108 0 0 0-2.348-1.117 3.893 3.893 0 0 0-2.631.584 4.031 4.031 0 0 0-.668.548c-.876.893-2.517 3.668-4.319 7.088zm25.11 8.045a97.405 97.405 0 0 0-6.531-1.941c-2.331-.609-4.891-1.241-7.515-1.889-3.862-.953-7.861-1.94-11.672-2.994.453 1.313.91 2.609 1.36 3.859 1.028.3 2.018.603 2.959.907l.783.051c6.749.461 13.913 1.522 20.374 3.124.088-.37.168-.742.242-1.117zm-26.748-2.26c-.371-.102-.745-.204-1.122-.305l-.136.282-.008.015c.419 0 .841.003 1.266.008zm-1.945-.524a312.269 312.269 0 0 0-5.841-1.477 324.92 324.92 0 0 1-.176 2.265 75.363 75.363 0 0 1 5.767-.267l.183-.381.067-.14zM18.59 47.611c1.145-1.976 3.097-5.119 5.338-8.701l.011-.19c-2.875.51-5.144 1.27-6.539 2.295-.917.673-1.679 1.464-1.949 2.353-.259.855-.056 1.841.927 2.961a4.08 4.08 0 0 0 1.716 1.14c.162.057.328.104.496.142zm6.243-10.146l.766-1.222-.711-.712c-.012.651-.03 1.298-.055 1.934zm1.222-1.95l.513-.818c-.556-.133-1.111-.266-1.664-.396v.061l1.151 1.153zm6.998-5.535a.432.432 0 0 1 .116.026l.158.059c.535.163 1.078.325 1.626.485a278.484 278.484 0 0 1-1.461-4.469 639.646 639.646 0 0 1-2.083 3.381c.539.175 1.088.348 1.644.518zm3.138 4.177c-.235.468-.47.941-.704 1.416.45.122.895.245 1.335.369-.21-.588-.421-1.184-.631-1.785zm3.06 3.871l-.256-.011c1.705 4.641 3.235 8.387 3.967 9.513.278.429.608.755.969.99.641.419 1.398.562 2.151.502a4.765 4.765 0 0 0 2.183-.751c.463-.301.851-.67 1.117-1.077.576-.882.76-1.764.651-2.585-.123-.928-.621-1.799-1.352-2.525-1.311-1.3-4.885-2.688-9.43-4.056zm-12.622.307c-.279.031-.556.065-.827.1l-1.132 1.809c-.174 2.131-.461 3.996-.914 5.286-.289.825-.738 1.47-1.285 1.95-.647.568-1.426.9-2.239 1.02a4.734 4.734 0 0 1-.641.051l-.133.233c-.671 1.188-.469 2.192.157 2.916.5.578 1.256 1.001 2.072 1.224.816.224 1.677.241 2.387.008.831-.273 1.446-.934 1.458-2.075.008-.759.203-2.823.463-5.56.193-2.038.422-4.452.634-6.962zm-2.786-18.581c.486 1.11.802 2.536.863 4.32l.017.487c.025.723.053 1.537.08 2.417a50.03 50.03 0 0 0 2.479 1.03c.069-2.363.039-4.4-.152-5.782-.081-.586-.281-1.064-.561-1.439a2.597 2.597 0 0 0-1.183-.882 3.096 3.096 0 0 0-1.504-.156l-.039.005zm10.822 15.598c.379-.773.763-1.54 1.144-2.291a367.76 367.76 0 0 1-.332-.966 131.3 131.3 0 0 1-4.795-1.463c-.66 1.061-1.328 2.133-1.996 3.199 2.019.493 4.035 1.002 5.979 1.521zm-2.574 7.54c-1.388 3.208-2.339 5.797-2.336 6.705.003 1.169.862 1.962 1.948 2.319a4.49 4.49 0 0 0 1.783.201c.589-.052 1.155-.224 1.62-.522.836-.535 1.342-1.509 1.036-2.972-.27-1.294-1.853-3.332-4.051-5.731zm-.253-1.496a160.12 160.12 0 0 1 1.584-3.462 75.286 75.286 0 0 0-4.745.207 167.504 167.504 0 0 1 3.161 3.255zm-5.127-4.042l-.142-.142-.203.323.333-.038.012-.143zm-2.757-10.771a725.42 725.42 0 0 0-.067-1.995l-.017-.488c-.059-1.735-.368-3.09-.836-4.113a3.115 3.115 0 0 0-.616.357 3.498 3.498 0 0 0-.966 1.136 3.775 3.775 0 0 0-.468 1.811c.004.601.175 1.198.557 1.709.252.339.598.642 1.048.888.433.235.889.467 1.365.695zm-.988 18.671c.31-.883.539-2.057.706-3.411a307.385 307.385 0 0 0-3.569 5.829l.008-.001a3.498 3.498 0 0 0 1.809-.82c.442-.388.807-.916 1.046-1.597zm8.747-31.875c-.202.98.745 4.753 2.176 9.469 1.915-3.188 3.402-5.802 3.997-7.184.598-1.392.3-2.454-.412-3.144-.402-.39-.937-.677-1.523-.852a4.674 4.674 0 0 0-1.852-.164c-1.146.135-2.152.739-2.386 1.875zM28.455 31.68c.31-.496.619-.991.925-1.484-.28-.097-.558-.194-.833-.292-.026.581-.057 1.174-.092 1.776z" fill-rule="nonzero"></path></g><g id="SvgjsG4707" class="text" transform="translate(230.82, 181.1150511444662) scale(1)" light-content="false" fill="#4a4a4a"><path d="M-205.81 -12.55C-205.81 -14.94 -206.2 -16.91 -206.97 -18.49C-207.74 -20.06 -208.79 -21.32 -210.13 -22.27C-211.47 -23.22 -213.05 -23.89 -214.86 -24.28C-216.68 -24.67 -218.63 -24.86 -220.72 -24.86L-230.82 -24.86L-230.82 -24.2C-230.03 -24.2 -229.39 -24.16 -228.92 -24.06C-228.45 -23.96 -228.1 -23.78 -227.85 -23.51C-227.61 -23.24 -227.46 -22.87 -227.39 -22.38C-227.33 -21.89 -227.29 -21.26 -227.29 -20.48L-227.29 -4.38C-227.29 -3.62 -227.33 -3 -227.41 -2.52C-227.5 -2.04 -227.66 -1.67 -227.9 -1.4C-228.14 -1.13 -228.5 -0.95 -228.96 -0.85C-229.42 -0.75 -230.04 -0.71 -230.82 -0.71L-230.82 0L-219.73 0C-217.73 0 -215.88 -0.26 -214.18 -0.78C-212.48 -1.3 -211.01 -2.08 -209.77 -3.13C-208.53 -4.17 -207.56 -5.48 -206.86 -7.04C-206.16 -8.61 -205.81 -10.44 -205.81 -12.55ZM-209.95 -12.41C-209.95 -10.88 -210.16 -9.44 -210.59 -8.09C-211.02 -6.73 -211.66 -5.55 -212.49 -4.54C-213.33 -3.52 -214.36 -2.72 -215.59 -2.13C-216.82 -1.54 -218.25 -1.24 -219.87 -1.24C-220.52 -1.24 -221.19 -1.29 -221.87 -1.4C-222.55 -1.5 -223.18 -1.64 -223.77 -1.8L-223.77 -22.92C-223.13 -23.09 -222.5 -23.23 -221.88 -23.33C-221.26 -23.43 -220.62 -23.47 -219.97 -23.47C-218.33 -23.47 -216.89 -23.19 -215.65 -22.61C-214.41 -22.04 -213.37 -21.24 -212.51 -20.24C-211.66 -19.23 -211.02 -18.06 -210.59 -16.72C-210.16 -15.39 -209.95 -13.95 -209.95 -12.41Z M-178.71 -12.55C-178.71 -14.27 -179 -15.91 -179.56 -17.47C-180.13 -19.02 -180.94 -20.39 -181.99 -21.57C-183.03 -22.74 -184.28 -23.67 -185.74 -24.36C-187.2 -25.05 -188.83 -25.4 -190.63 -25.4C-192.47 -25.4 -194.14 -25.06 -195.67 -24.39C-197.19 -23.71 -198.51 -22.8 -199.61 -21.64C-200.71 -20.48 -201.57 -19.12 -202.18 -17.55C-202.78 -15.99 -203.09 -14.3 -203.09 -12.5C-203.09 -10.72 -202.8 -9.03 -202.24 -7.44C-201.67 -5.85 -200.85 -4.46 -199.79 -3.27C-198.73 -2.08 -197.45 -1.14 -195.95 -0.44C-194.45 0.26 -192.77 0.61 -190.93 0.61C-189.08 0.61 -187.4 0.26 -185.9 -0.45C-184.4 -1.16 -183.12 -2.11 -182.06 -3.32C-181 -4.53 -180.17 -5.93 -179.59 -7.52C-179.01 -9.11 -178.71 -10.78 -178.71 -12.55ZM-182.9 -12.31C-182.9 -11.42 -182.95 -10.51 -183.04 -9.6C-183.14 -8.68 -183.31 -7.8 -183.54 -6.95C-183.78 -6.09 -184.09 -5.29 -184.49 -4.54C-184.89 -3.78 -185.39 -3.13 -185.99 -2.57C-186.59 -2.01 -187.3 -1.56 -188.12 -1.24C-188.93 -0.92 -189.89 -0.75 -190.97 -0.75C-192.01 -0.75 -192.93 -0.93 -193.72 -1.29C-194.52 -1.65 -195.21 -2.12 -195.79 -2.72C-196.37 -3.32 -196.86 -4.02 -197.25 -4.82C-197.64 -5.61 -197.96 -6.45 -198.2 -7.32C-198.44 -8.2 -198.61 -9.09 -198.71 -10C-198.81 -10.91 -198.86 -11.77 -198.86 -12.6C-198.86 -13.44 -198.81 -14.32 -198.71 -15.22C-198.61 -16.12 -198.45 -16.99 -198.21 -17.84C-197.98 -18.69 -197.66 -19.5 -197.27 -20.26C-196.88 -21.03 -196.4 -21.69 -195.81 -22.26C-195.23 -22.83 -194.55 -23.28 -193.76 -23.61C-192.97 -23.94 -192.06 -24.11 -191.02 -24.11C-189.89 -24.11 -188.9 -23.94 -188.07 -23.61C-187.23 -23.28 -186.51 -22.83 -185.91 -22.26C-185.31 -21.69 -184.82 -21.03 -184.43 -20.26C-184.04 -19.5 -183.73 -18.68 -183.51 -17.81C-183.28 -16.93 -183.12 -16.02 -183.03 -15.08C-182.94 -14.14 -182.9 -13.22 -182.9 -12.31Z M-155.26 0L-144.66 0L-144.66 -0.71C-145.43 -0.71 -146.06 -0.75 -146.52 -0.84C-146.98 -0.93 -147.33 -1.11 -147.58 -1.37C-147.82 -1.64 -147.98 -2.01 -148.06 -2.48C-148.14 -2.95 -148.18 -3.57 -148.18 -4.33L-148.18 -20.58C-148.18 -21.33 -148.15 -21.93 -148.07 -22.4C-148 -22.87 -147.84 -23.24 -147.6 -23.51C-147.36 -23.78 -147 -23.96 -146.53 -24.06C-146.06 -24.16 -145.43 -24.2 -144.66 -24.2L-144.66 -24.86L-151.71 -24.86L-160.59 -5.42L-169.62 -24.86L-176.62 -24.86L-176.62 -24.2C-175.92 -24.2 -175.35 -24.14 -174.91 -24.01C-174.46 -23.88 -174.11 -23.67 -173.85 -23.39C-173.59 -23.11 -173.41 -22.73 -173.3 -22.27C-173.2 -21.81 -173.14 -21.24 -173.14 -20.58L-173.14 -4.33C-173.14 -3.58 -173.18 -2.98 -173.25 -2.51C-173.32 -2.04 -173.48 -1.67 -173.73 -1.4C-173.97 -1.13 -174.32 -0.95 -174.77 -0.85C-175.23 -0.75 -175.84 -0.71 -176.62 -0.71L-176.62 0L-168.01 0L-168.01 -0.71C-168.79 -0.71 -169.41 -0.75 -169.87 -0.84C-170.33 -0.93 -170.69 -1.11 -170.93 -1.37C-171.17 -1.64 -171.33 -2.01 -171.42 -2.48C-171.5 -2.95 -171.54 -3.57 -171.54 -4.33L-171.54 -20.92L-161.93 0L-161.34 0L-151.71 -20.92L-151.71 -4.33C-151.71 -3.58 -151.75 -2.98 -151.83 -2.51C-151.91 -2.04 -152.08 -1.67 -152.33 -1.4C-152.58 -1.13 -152.94 -0.95 -153.4 -0.85C-153.86 -0.75 -154.48 -0.71 -155.26 -0.71Z M-142.9 0L-132.25 0L-132.25 -0.71C-133.06 -0.71 -133.7 -0.76 -134.17 -0.86C-134.64 -0.97 -135 -1.16 -135.24 -1.42C-135.49 -1.69 -135.64 -2.06 -135.72 -2.54C-135.79 -3.02 -135.83 -3.63 -135.83 -4.38L-135.83 -20.48C-135.83 -21.24 -135.79 -21.87 -135.7 -22.34C-135.62 -22.82 -135.46 -23.2 -135.21 -23.47C-134.95 -23.75 -134.59 -23.94 -134.12 -24.05C-133.65 -24.15 -133.03 -24.2 -132.25 -24.2L-132.25 -24.86L-142.9 -24.86L-142.9 -24.2C-142.11 -24.2 -141.48 -24.15 -141.01 -24.05C-140.54 -23.94 -140.18 -23.75 -139.94 -23.47C-139.69 -23.2 -139.54 -22.82 -139.47 -22.34C-139.41 -21.87 -139.38 -21.24 -139.38 -20.48L-139.38 -4.38C-139.38 -3.63 -139.41 -3.02 -139.47 -2.54C-139.54 -2.06 -139.69 -1.69 -139.94 -1.42C-140.18 -1.16 -140.54 -0.97 -141.01 -0.86C-141.48 -0.76 -142.11 -0.71 -142.9 -0.71Z M-104.74 -24.2L-104.74 -24.86L-113.42 -24.86L-113.42 -24.2C-112.64 -24.2 -112.02 -24.16 -111.56 -24.06C-111.1 -23.96 -110.74 -23.78 -110.49 -23.51C-110.24 -23.24 -110.07 -22.87 -109.99 -22.4C-109.91 -21.93 -109.87 -21.33 -109.87 -20.58L-109.87 -6.23L-125.07 -24.86L-131.16 -24.86L-131.16 -24.2C-130.59 -24.2 -130.11 -24.15 -129.72 -24.03C-129.33 -23.92 -128.99 -23.75 -128.69 -23.54C-128.39 -23.32 -128.1 -23.05 -127.83 -22.73C-127.57 -22.42 -127.28 -22.05 -126.97 -21.63L-126.97 -4.33C-126.97 -3.58 -127.01 -2.98 -127.09 -2.51C-127.17 -2.04 -127.34 -1.67 -127.58 -1.4C-127.82 -1.13 -128.18 -0.95 -128.64 -0.85C-129.1 -0.75 -129.72 -0.71 -130.5 -0.71L-130.5 0L-121.84 0L-121.84 -0.71C-122.62 -0.71 -123.24 -0.75 -123.71 -0.84C-124.18 -0.93 -124.54 -1.1 -124.78 -1.36C-125.03 -1.62 -125.18 -1.99 -125.26 -2.46C-125.33 -2.93 -125.37 -3.55 -125.37 -4.33L-125.37 -19.63L-108.92 0.39L-108.29 0.39L-108.29 -20.58C-108.29 -21.33 -108.25 -21.93 -108.18 -22.4C-108.11 -22.87 -107.94 -23.24 -107.69 -23.51C-107.44 -23.78 -107.08 -23.96 -106.61 -24.06C-106.14 -24.16 -105.52 -24.2 -104.74 -24.2Z M-103.3 0L-92.65 0L-92.65 -0.71C-93.46 -0.71 -94.1 -0.76 -94.57 -0.86C-95.04 -0.97 -95.4 -1.16 -95.64 -1.42C-95.88 -1.69 -96.04 -2.06 -96.11 -2.54C-96.19 -3.02 -96.22 -3.63 -96.22 -4.38L-96.22 -20.48C-96.22 -21.24 -96.18 -21.87 -96.1 -22.34C-96.02 -22.82 -95.85 -23.2 -95.6 -23.47C-95.35 -23.75 -94.99 -23.94 -94.52 -24.05C-94.05 -24.15 -93.43 -24.2 -92.65 -24.2L-92.65 -24.86L-103.3 -24.86L-103.3 -24.2C-102.51 -24.2 -101.87 -24.15 -101.4 -24.05C-100.93 -23.94 -100.58 -23.75 -100.33 -23.47C-100.09 -23.2 -99.94 -22.82 -99.87 -22.34C-99.81 -21.87 -99.77 -21.24 -99.77 -20.48L-99.77 -4.38C-99.77 -3.63 -99.81 -3.02 -99.87 -2.54C-99.94 -2.06 -100.09 -1.69 -100.33 -1.42C-100.58 -1.16 -100.93 -0.97 -101.4 -0.86C-101.87 -0.76 -102.51 -0.71 -103.3 -0.71Z M-76.15 0L-64.31 0L-64.31 -0.71C-65.09 -0.79 -65.78 -0.94 -66.4 -1.16C-67.01 -1.37 -67.59 -1.65 -68.14 -1.99C-68.68 -2.34 -69.21 -2.73 -69.72 -3.19C-70.23 -3.64 -70.76 -4.14 -71.31 -4.69L-80.53 -13.79L-76.71 -17.59C-76.21 -18.09 -75.62 -18.72 -74.94 -19.47C-74.26 -20.23 -73.51 -20.95 -72.71 -21.65C-71.91 -22.35 -71.07 -22.95 -70.19 -23.45C-69.32 -23.95 -68.43 -24.2 -67.54 -24.2L-67.54 -24.86L-76.71 -24.86L-76.71 -24.2C-76.32 -24.2 -75.99 -24.2 -75.7 -24.19C-75.42 -24.18 -75.18 -24.15 -75 -24.08C-74.81 -24.02 -74.67 -23.91 -74.58 -23.77C-74.5 -23.62 -74.45 -23.42 -74.45 -23.16C-74.45 -22.82 -74.65 -22.36 -75.03 -21.78C-75.42 -21.21 -75.93 -20.57 -76.54 -19.87C-77.16 -19.18 -77.84 -18.46 -78.59 -17.72C-79.33 -16.98 -80.06 -16.28 -80.78 -15.62C-81.49 -14.95 -82.14 -14.36 -82.73 -13.83C-83.33 -13.3 -83.78 -12.91 -84.08 -12.65L-84.08 -20.48C-84.08 -21.24 -84.04 -21.87 -83.96 -22.34C-83.88 -22.82 -83.71 -23.2 -83.45 -23.47C-83.19 -23.75 -82.83 -23.94 -82.37 -24.05C-81.91 -24.15 -81.29 -24.2 -80.53 -24.2L-80.53 -24.86L-91.09 -24.86L-91.09 -24.2C-90.3 -24.2 -89.67 -24.15 -89.2 -24.05C-88.74 -23.94 -88.39 -23.75 -88.16 -23.46C-87.92 -23.18 -87.77 -22.8 -87.71 -22.32C-87.64 -21.84 -87.61 -21.23 -87.61 -20.48L-87.61 -4.38C-87.61 -3.62 -87.64 -3 -87.71 -2.52C-87.77 -2.04 -87.92 -1.67 -88.16 -1.4C-88.39 -1.13 -88.74 -0.95 -89.2 -0.85C-89.67 -0.75 -90.3 -0.71 -91.09 -0.71L-91.09 0L-80.53 0L-80.53 -0.71C-81.31 -0.71 -81.94 -0.75 -82.41 -0.85C-82.88 -0.95 -83.24 -1.13 -83.49 -1.4C-83.74 -1.67 -83.9 -2.04 -83.97 -2.52C-84.05 -3 -84.08 -3.62 -84.08 -4.38L-84.08 -10.27L-82.99 -11.36L-75.5 -3.89C-75.4 -3.79 -75.27 -3.67 -75.12 -3.5C-74.97 -3.34 -74.81 -3.17 -74.66 -2.98C-74.5 -2.79 -74.37 -2.61 -74.27 -2.42C-74.16 -2.23 -74.11 -2.08 -74.11 -1.95C-74.11 -1.69 -74.17 -1.48 -74.3 -1.31C-74.43 -1.15 -74.6 -1.03 -74.8 -0.94C-75.01 -0.85 -75.23 -0.79 -75.47 -0.75C-75.72 -0.72 -75.94 -0.71 -76.15 -0.71Z M-47.76 0L-37.94 0L-37.94 -0.71C-38.62 -0.74 -39.18 -0.86 -39.62 -1.08C-40.05 -1.3 -40.43 -1.59 -40.73 -1.96C-41.04 -2.32 -41.31 -2.74 -41.53 -3.22C-41.74 -3.7 -41.98 -4.22 -42.22 -4.79L-50.85 -25.4L-51.49 -25.4L-60.27 -4.94C-60.48 -4.45 -60.7 -3.96 -60.93 -3.47C-61.15 -2.97 -61.42 -2.52 -61.74 -2.12C-62.06 -1.71 -62.43 -1.38 -62.85 -1.12C-63.27 -0.86 -63.77 -0.72 -64.36 -0.71L-64.36 0L-56.52 0L-56.52 -0.71C-56.77 -0.72 -57.05 -0.75 -57.37 -0.79C-57.7 -0.83 -58.01 -0.91 -58.32 -1.02C-58.63 -1.14 -58.89 -1.29 -59.1 -1.5C-59.31 -1.7 -59.42 -1.96 -59.42 -2.29C-59.42 -2.48 -59.37 -2.75 -59.27 -3.09C-59.17 -3.43 -59.05 -3.8 -58.89 -4.21C-58.74 -4.61 -58.57 -5.03 -58.4 -5.45C-58.22 -5.87 -58.04 -6.27 -57.86 -6.65C-57.68 -7.03 -57.52 -7.37 -57.39 -7.67C-57.25 -7.97 -57.15 -8.19 -57.08 -8.32L-47.45 -8.32C-47.35 -8.09 -47.18 -7.71 -46.94 -7.18C-46.69 -6.64 -46.45 -6.07 -46.21 -5.45C-45.96 -4.83 -45.75 -4.23 -45.55 -3.65C-45.36 -3.07 -45.26 -2.61 -45.26 -2.29C-45.26 -1.95 -45.34 -1.67 -45.5 -1.47C-45.66 -1.27 -45.87 -1.11 -46.11 -1C-46.35 -0.88 -46.62 -0.81 -46.91 -0.77C-47.21 -0.73 -47.49 -0.71 -47.76 -0.71ZM-52.19 -19.78L-47.96 -9.66L-56.52 -9.66Z M-11.93 -24.2L-11.93 -24.86L-22.59 -24.86L-22.59 -24.2C-21.78 -24.2 -21.14 -24.15 -20.67 -24.05C-20.19 -23.94 -19.84 -23.75 -19.59 -23.46C-19.35 -23.18 -19.19 -22.8 -19.12 -22.32C-19.05 -21.84 -19.01 -21.23 -19.01 -20.48L-19.01 -3.48C-19.01 -3.25 -19.02 -2.98 -19.04 -2.68C-19.05 -2.37 -19.1 -2.07 -19.19 -1.79C-19.28 -1.5 -19.42 -1.26 -19.59 -1.06C-19.77 -0.86 -20.02 -0.75 -20.35 -0.75C-20.56 -0.75 -20.74 -0.84 -20.9 -1.01C-21.05 -1.18 -21.2 -1.39 -21.33 -1.63C-21.47 -1.87 -21.61 -2.14 -21.74 -2.44C-21.87 -2.74 -22.02 -3.02 -22.2 -3.26C-22.38 -3.5 -22.58 -3.71 -22.82 -3.88C-23.05 -4.05 -23.34 -4.14 -23.68 -4.14C-24.91 -4.14 -25.53 -3.5 -25.53 -2.24C-25.53 -1.74 -25.42 -1.31 -25.19 -0.95C-24.96 -0.59 -24.67 -0.3 -24.33 -0.06C-23.98 0.17 -23.58 0.34 -23.15 0.45C-22.71 0.56 -22.28 0.61 -21.86 0.61C-20.61 0.61 -19.57 0.34 -18.76 -0.21C-17.94 -0.75 -17.28 -1.45 -16.8 -2.31C-16.31 -3.17 -15.97 -4.13 -15.78 -5.18C-15.58 -6.24 -15.48 -7.28 -15.48 -8.32L-15.48 -20.48C-15.48 -21.24 -15.45 -21.87 -15.37 -22.34C-15.3 -22.82 -15.14 -23.2 -14.9 -23.47C-14.66 -23.75 -14.3 -23.94 -13.83 -24.05C-13.36 -24.15 -12.73 -24.2 -11.93 -24.2Z M5.19 0L15.02 0L15.02 -0.71C14.34 -0.74 13.78 -0.86 13.34 -1.08C12.91 -1.3 12.53 -1.59 12.22 -1.96C11.92 -2.32 11.65 -2.74 11.43 -3.22C11.21 -3.7 10.98 -4.22 10.74 -4.79L2.1 -25.4L1.47 -25.4L-7.31 -4.94C-7.52 -4.45 -7.74 -3.96 -7.97 -3.47C-8.19 -2.97 -8.47 -2.52 -8.78 -2.12C-9.1 -1.71 -9.47 -1.38 -9.89 -1.12C-10.31 -0.86 -10.81 -0.72 -11.4 -0.71L-11.4 0L-3.56 0L-3.56 -0.71C-3.81 -0.72 -4.09 -0.75 -4.42 -0.79C-4.74 -0.83 -5.06 -0.91 -5.36 -1.02C-5.67 -1.14 -5.93 -1.29 -6.14 -1.5C-6.35 -1.7 -6.46 -1.96 -6.46 -2.29C-6.46 -2.48 -6.41 -2.75 -6.31 -3.09C-6.22 -3.43 -6.09 -3.8 -5.94 -4.21C-5.78 -4.61 -5.62 -5.03 -5.44 -5.45C-5.26 -5.87 -5.08 -6.27 -4.9 -6.65C-4.72 -7.03 -4.57 -7.37 -4.43 -7.67C-4.29 -7.97 -4.19 -8.19 -4.12 -8.32L5.51 -8.32C5.61 -8.09 5.78 -7.71 6.02 -7.18C6.26 -6.64 6.51 -6.07 6.75 -5.45C6.99 -4.83 7.21 -4.23 7.41 -3.65C7.6 -3.07 7.7 -2.61 7.7 -2.29C7.7 -1.95 7.62 -1.67 7.46 -1.47C7.29 -1.27 7.09 -1.11 6.85 -1C6.6 -0.88 6.34 -0.81 6.05 -0.77C5.75 -0.73 5.47 -0.71 5.19 -0.71ZM0.77 -19.78L5 -9.66L-3.56 -9.66Z M30.91 0L42.75 0L42.75 -0.71C41.98 -0.79 41.28 -0.94 40.66 -1.16C40.05 -1.37 39.47 -1.65 38.92 -1.99C38.38 -2.34 37.85 -2.73 37.34 -3.19C36.83 -3.64 36.3 -4.14 35.75 -4.69L26.53 -13.79L30.35 -17.59C30.85 -18.09 31.44 -18.72 32.12 -19.47C32.8 -20.23 33.55 -20.95 34.35 -21.65C35.15 -22.35 35.99 -22.95 36.87 -23.45C37.74 -23.95 38.63 -24.2 39.52 -24.2L39.52 -24.86L30.35 -24.86L30.35 -24.2C30.74 -24.2 31.07 -24.2 31.36 -24.19C31.64 -24.18 31.88 -24.15 32.06 -24.08C32.25 -24.02 32.39 -23.91 32.48 -23.77C32.56 -23.62 32.61 -23.42 32.61 -23.16C32.61 -22.82 32.41 -22.36 32.03 -21.78C31.64 -21.21 31.13 -20.57 30.52 -19.87C29.9 -19.18 29.22 -18.46 28.47 -17.72C27.73 -16.98 27 -16.28 26.28 -15.62C25.57 -14.95 24.92 -14.36 24.33 -13.83C23.73 -13.3 23.28 -12.91 22.98 -12.65L22.98 -20.48C22.98 -21.24 23.02 -21.87 23.1 -22.34C23.18 -22.82 23.35 -23.2 23.61 -23.47C23.87 -23.75 24.23 -23.94 24.69 -24.05C25.15 -24.15 25.77 -24.2 26.53 -24.2L26.53 -24.86L15.97 -24.86L15.97 -24.2C16.76 -24.2 17.39 -24.15 17.86 -24.05C18.32 -23.94 18.67 -23.75 18.9 -23.46C19.14 -23.18 19.29 -22.8 19.35 -22.32C19.42 -21.84 19.45 -21.23 19.45 -20.48L19.45 -4.38C19.45 -3.62 19.42 -3 19.35 -2.52C19.29 -2.04 19.14 -1.67 18.9 -1.4C18.67 -1.13 18.32 -0.95 17.86 -0.85C17.39 -0.75 16.76 -0.71 15.97 -0.71L15.97 0L26.53 0L26.53 -0.71C25.75 -0.71 25.13 -0.75 24.65 -0.85C24.18 -0.95 23.82 -1.13 23.57 -1.4C23.32 -1.67 23.16 -2.04 23.09 -2.52C23.01 -3 22.98 -3.62 22.98 -4.38L22.98 -10.27L24.07 -11.36L31.56 -3.89C31.66 -3.79 31.79 -3.67 31.94 -3.5C32.09 -3.34 32.25 -3.17 32.4 -2.98C32.56 -2.79 32.69 -2.61 32.79 -2.42C32.9 -2.23 32.95 -2.08 32.95 -1.95C32.95 -1.69 32.89 -1.48 32.76 -1.31C32.63 -1.15 32.46 -1.03 32.26 -0.94C32.05 -0.85 31.83 -0.79 31.59 -0.75C31.34 -0.72 31.12 -0.71 30.91 -0.71Z M69.17 -24.2L69.17 -24.86L60.34 -24.86L60.34 -24.2C61.12 -24.2 61.74 -24.16 62.21 -24.06C62.68 -23.96 63.05 -23.77 63.3 -23.5C63.55 -23.22 63.71 -22.85 63.78 -22.37C63.86 -21.89 63.89 -21.26 63.89 -20.48L63.89 -10.41C63.89 -9.91 63.88 -9.32 63.86 -8.65C63.83 -7.97 63.76 -7.3 63.65 -6.63C63.54 -5.96 63.37 -5.32 63.14 -4.71C62.91 -4.1 62.6 -3.61 62.19 -3.24C61.36 -2.46 60.44 -1.89 59.42 -1.53C58.4 -1.18 57.32 -1 56.21 -1C54.83 -1 53.71 -1.23 52.86 -1.69C52.01 -2.15 51.35 -2.78 50.89 -3.56C50.43 -4.35 50.12 -5.27 49.97 -6.31C49.81 -7.36 49.74 -8.46 49.74 -9.61L49.74 -20.48C49.74 -21.16 49.77 -21.74 49.84 -22.21C49.92 -22.68 50.07 -23.07 50.29 -23.37C50.52 -23.67 50.85 -23.88 51.27 -24.01C51.69 -24.14 52.26 -24.2 52.97 -24.2L52.97 -24.86L42.97 -24.86L42.97 -24.2C43.7 -24.2 44.28 -24.14 44.71 -24.01C45.14 -23.88 45.47 -23.67 45.68 -23.37C45.9 -23.07 46.05 -22.68 46.11 -22.21C46.18 -21.74 46.21 -21.16 46.21 -20.48L46.21 -10.7C46.21 -8.9 46.33 -7.3 46.58 -5.9C46.84 -4.5 47.32 -3.31 48.03 -2.35C48.75 -1.38 49.74 -0.65 51.01 -0.15C52.29 0.36 53.94 0.61 55.96 0.61C57.8 0.61 59.33 0.36 60.56 -0.13C61.79 -0.63 62.78 -1.34 63.52 -2.26C64.25 -3.19 64.78 -4.32 65.1 -5.66C65.41 -6.99 65.57 -8.51 65.57 -10.22L65.57 -20.34C65.57 -21.05 65.62 -21.65 65.72 -22.15C65.81 -22.64 65.99 -23.05 66.25 -23.35C66.51 -23.66 66.88 -23.88 67.35 -24.01C67.82 -24.14 68.43 -24.2 69.17 -24.2Z M92.48 -6.79C92.48 -7.68 92.34 -8.46 92.06 -9.13C91.79 -9.81 91.4 -10.38 90.9 -10.86C90.39 -11.34 89.8 -11.73 89.12 -12.03C88.44 -12.33 87.68 -12.55 86.86 -12.7C87.49 -12.89 88.08 -13.16 88.63 -13.5C89.18 -13.84 89.66 -14.24 90.07 -14.71C90.47 -15.17 90.79 -15.69 91.03 -16.27C91.26 -16.86 91.38 -17.5 91.38 -18.2C91.38 -19.15 91.23 -19.98 90.92 -20.69C90.61 -21.39 90.19 -22 89.67 -22.49C89.14 -22.98 88.53 -23.39 87.83 -23.69C87.13 -24 86.39 -24.24 85.62 -24.41C84.84 -24.58 84.04 -24.7 83.23 -24.76C82.42 -24.83 81.64 -24.86 80.87 -24.86L70.17 -24.86L70.17 -24.2C70.96 -24.2 71.6 -24.16 72.07 -24.06C72.54 -23.96 72.89 -23.77 73.14 -23.5C73.38 -23.22 73.53 -22.85 73.6 -22.37C73.66 -21.89 73.7 -21.26 73.7 -20.48L73.7 -4.38C73.7 -3.63 73.66 -3.02 73.57 -2.54C73.49 -2.06 73.33 -1.69 73.09 -1.42C72.85 -1.16 72.49 -0.97 72.03 -0.86C71.57 -0.76 70.95 -0.71 70.17 -0.71L70.17 0L81.87 0C82.63 0 83.42 -0.03 84.24 -0.1C85.06 -0.16 85.86 -0.28 86.65 -0.45C87.44 -0.62 88.18 -0.86 88.89 -1.18C89.59 -1.5 90.21 -1.91 90.75 -2.41C91.28 -2.91 91.71 -3.52 92.01 -4.24C92.32 -4.97 92.48 -5.81 92.48 -6.79ZM87.49 -18.39C87.49 -17.4 87.3 -16.59 86.92 -15.95C86.54 -15.31 86.03 -14.8 85.4 -14.43C84.77 -14.05 84.04 -13.8 83.23 -13.66C82.42 -13.52 81.59 -13.45 80.73 -13.45C80.16 -13.45 79.58 -13.46 78.99 -13.48C78.4 -13.49 77.81 -13.57 77.22 -13.7L77.22 -23.26C77.78 -23.39 78.33 -23.48 78.89 -23.54C79.45 -23.59 80.01 -23.62 80.58 -23.62C81.41 -23.62 82.23 -23.53 83.05 -23.35C83.87 -23.17 84.61 -22.88 85.26 -22.47C85.92 -22.05 86.46 -21.51 86.87 -20.85C87.28 -20.18 87.49 -19.36 87.49 -18.39ZM88.24 -6.52C88.24 -5.56 88.05 -4.75 87.65 -4.09C87.25 -3.42 86.73 -2.88 86.09 -2.47C85.45 -2.06 84.73 -1.76 83.93 -1.57C83.12 -1.38 82.31 -1.29 81.48 -1.29C80.75 -1.29 80.04 -1.33 79.34 -1.42C78.64 -1.51 77.94 -1.64 77.22 -1.8L77.22 -12.02C77.81 -12.1 78.37 -12.14 78.9 -12.15C79.44 -12.16 79.96 -12.16 80.48 -12.16C81.39 -12.16 82.31 -12.07 83.23 -11.88C84.16 -11.7 84.99 -11.38 85.73 -10.95C86.46 -10.51 87.07 -9.93 87.54 -9.21C88.01 -8.49 88.24 -7.59 88.24 -6.52Z M119.6 -12.55C119.6 -14.27 119.32 -15.91 118.75 -17.47C118.18 -19.02 117.37 -20.39 116.33 -21.57C115.28 -22.74 114.03 -23.67 112.57 -24.36C111.11 -25.05 109.48 -25.4 107.68 -25.4C105.85 -25.4 104.17 -25.06 102.64 -24.39C101.12 -23.71 99.81 -22.8 98.7 -21.64C97.6 -20.48 96.75 -19.12 96.14 -17.55C95.53 -15.99 95.23 -14.3 95.23 -12.5C95.23 -10.72 95.51 -9.03 96.08 -7.44C96.64 -5.85 97.46 -4.46 98.52 -3.27C99.58 -2.08 100.86 -1.14 102.37 -0.44C103.87 0.26 105.54 0.61 107.39 0.61C109.24 0.61 110.91 0.26 112.41 -0.45C113.91 -1.16 115.19 -2.11 116.26 -3.32C117.32 -4.53 118.14 -5.93 118.72 -7.52C119.31 -9.11 119.6 -10.78 119.6 -12.55ZM115.42 -12.31C115.42 -11.42 115.37 -10.51 115.27 -9.6C115.17 -8.68 115.01 -7.8 114.77 -6.95C114.54 -6.09 114.22 -5.29 113.82 -4.54C113.43 -3.78 112.93 -3.13 112.33 -2.57C111.73 -2.01 111.02 -1.56 110.2 -1.24C109.38 -0.92 108.43 -0.75 107.34 -0.75C106.3 -0.75 105.39 -0.93 104.59 -1.29C103.8 -1.65 103.11 -2.12 102.52 -2.72C101.94 -3.32 101.45 -4.02 101.06 -4.82C100.67 -5.61 100.36 -6.45 100.11 -7.32C99.87 -8.2 99.7 -9.09 99.6 -10C99.51 -10.91 99.46 -11.77 99.46 -12.6C99.46 -13.44 99.51 -14.32 99.6 -15.22C99.7 -16.12 99.87 -16.99 100.1 -17.84C100.34 -18.69 100.65 -19.5 101.04 -20.26C101.43 -21.03 101.92 -21.69 102.5 -22.26C103.08 -22.83 103.77 -23.28 104.55 -23.61C105.34 -23.94 106.25 -24.11 107.29 -24.11C108.43 -24.11 109.41 -23.94 110.25 -23.61C111.08 -23.28 111.8 -22.83 112.4 -22.26C113 -21.69 113.49 -21.03 113.88 -20.26C114.27 -19.5 114.58 -18.68 114.81 -17.81C115.04 -16.93 115.19 -16.02 115.28 -15.08C115.37 -14.14 115.42 -13.22 115.42 -12.31Z M156.16 -24.2L156.16 -24.86L148.79 -24.86L148.79 -24.2C149.08 -24.2 149.38 -24.18 149.69 -24.14C150 -24.1 150.29 -24.02 150.56 -23.9C150.82 -23.78 151.04 -23.61 151.21 -23.39C151.38 -23.17 151.47 -22.88 151.47 -22.53C151.47 -22.33 151.44 -22.1 151.38 -21.83C151.33 -21.57 151.26 -21.29 151.19 -21.02C151.12 -20.74 151.04 -20.47 150.96 -20.22C150.88 -19.96 150.8 -19.73 150.74 -19.53L145.99 -5.79L141.2 -19.34C141.02 -19.78 140.85 -20.3 140.68 -20.91C140.51 -21.52 140.42 -22.07 140.42 -22.57C140.42 -22.98 140.5 -23.29 140.65 -23.51C140.81 -23.73 141.01 -23.89 141.26 -24C141.51 -24.1 141.8 -24.16 142.11 -24.18C142.43 -24.2 142.74 -24.2 143.05 -24.2L143.05 -24.86L133.34 -24.86L133.34 -24.2C134.12 -24.2 134.78 -23.98 135.3 -23.52C135.83 -23.07 136.27 -22.51 136.63 -21.85C136.99 -21.18 137.28 -20.47 137.5 -19.72C137.73 -18.96 137.93 -18.29 138.11 -17.69L133.98 -5.79L129.11 -19.78C129.05 -19.96 128.97 -20.17 128.88 -20.43C128.79 -20.69 128.71 -20.96 128.63 -21.24C128.54 -21.51 128.47 -21.78 128.41 -22.04C128.34 -22.3 128.31 -22.53 128.31 -22.72C128.31 -23.06 128.39 -23.33 128.54 -23.52C128.69 -23.72 128.89 -23.86 129.12 -23.96C129.36 -24.06 129.62 -24.12 129.9 -24.16C130.19 -24.19 130.45 -24.2 130.69 -24.2L130.69 -24.86L121.52 -24.86L121.52 -24.2C122.2 -24.2 122.75 -24.09 123.15 -23.86C123.56 -23.64 123.89 -23.33 124.14 -22.94C124.39 -22.55 124.6 -22.11 124.77 -21.61C124.94 -21.12 125.12 -20.6 125.32 -20.07L132.64 0.61L133.34 0.61L138.96 -15.3L144.61 0.61L145.39 0.61L152.27 -19.53C152.45 -20.02 152.63 -20.54 152.82 -21.09C153 -21.64 153.24 -22.15 153.51 -22.61C153.79 -23.07 154.14 -23.45 154.56 -23.75C154.98 -24.05 155.51 -24.2 156.16 -24.2Z M175.38 -6.37C175.38 -7.35 175.19 -8.21 174.8 -8.96C174.41 -9.72 173.89 -10.4 173.25 -11.02C172.61 -11.64 171.89 -12.2 171.07 -12.7C170.26 -13.2 169.43 -13.68 168.58 -14.12C167.73 -14.57 166.9 -15.01 166.09 -15.44C165.28 -15.86 164.55 -16.31 163.91 -16.79C163.27 -17.26 162.76 -17.77 162.37 -18.32C161.98 -18.87 161.78 -19.49 161.78 -20.17C161.78 -20.75 161.91 -21.27 162.16 -21.74C162.41 -22.2 162.74 -22.6 163.16 -22.93C163.57 -23.26 164.04 -23.52 164.56 -23.69C165.07 -23.87 165.61 -23.96 166.16 -23.96C167.21 -23.96 168.15 -23.77 168.96 -23.39C169.77 -23.01 170.46 -22.5 171.04 -21.86C171.61 -21.22 172.07 -20.46 172.41 -19.59C172.75 -18.73 172.96 -17.81 173.05 -16.83L173.75 -16.83L173.75 -25.4L173.05 -25.4C173.01 -25.27 172.97 -25.12 172.91 -24.96C172.85 -24.8 172.78 -24.65 172.68 -24.51C172.58 -24.37 172.47 -24.25 172.34 -24.16C172.21 -24.06 172.05 -24.01 171.85 -24.01C171.58 -24.01 171.23 -24.08 170.81 -24.23C170.39 -24.37 169.92 -24.53 169.41 -24.7C168.9 -24.87 168.36 -25.03 167.8 -25.18C167.24 -25.32 166.68 -25.4 166.11 -25.4C165.16 -25.4 164.24 -25.25 163.38 -24.96C162.51 -24.67 161.74 -24.24 161.08 -23.68C160.41 -23.12 159.88 -22.44 159.48 -21.63C159.09 -20.82 158.89 -19.9 158.89 -18.88C158.89 -17.94 159.08 -17.1 159.46 -16.36C159.84 -15.62 160.34 -14.95 160.95 -14.34C161.57 -13.73 162.28 -13.18 163.07 -12.67C163.87 -12.17 164.67 -11.69 165.49 -11.24C166.31 -10.78 167.12 -10.33 167.91 -9.89C168.71 -9.44 169.41 -8.97 170.03 -8.48C170.64 -7.98 171.14 -7.45 171.52 -6.87C171.91 -6.3 172.1 -5.65 172.1 -4.94C172.1 -4.26 171.95 -3.66 171.66 -3.15C171.37 -2.64 170.99 -2.21 170.53 -1.87C170.07 -1.53 169.54 -1.28 168.95 -1.11C168.35 -0.94 167.76 -0.85 167.16 -0.85C166.06 -0.85 165.07 -1.03 164.2 -1.37C163.33 -1.72 162.59 -2.21 161.98 -2.83C161.36 -3.46 160.87 -4.21 160.49 -5.08C160.12 -5.96 159.87 -6.92 159.74 -7.98L159.08 -7.98L159.08 0.61L159.74 0.61C159.77 0.45 159.81 0.28 159.85 0.11C159.89 -0.06 159.95 -0.22 160.04 -0.36C160.13 -0.51 160.25 -0.63 160.38 -0.72C160.52 -0.81 160.69 -0.85 160.88 -0.85C161.19 -0.85 161.59 -0.77 162.07 -0.62C162.56 -0.47 163.1 -0.3 163.69 -0.12C164.28 0.06 164.91 0.22 165.58 0.38C166.24 0.53 166.91 0.61 167.57 0.61C168.58 0.61 169.55 0.45 170.49 0.12C171.43 -0.2 172.26 -0.66 172.98 -1.26C173.71 -1.87 174.29 -2.59 174.72 -3.45C175.16 -4.31 175.38 -5.29 175.38 -6.37Z M192.97 0L204.82 0L204.82 -0.71C204.04 -0.79 203.34 -0.94 202.72 -1.16C202.11 -1.37 201.53 -1.65 200.98 -1.99C200.44 -2.34 199.91 -2.73 199.4 -3.19C198.89 -3.64 198.36 -4.14 197.81 -4.69L188.59 -13.79L192.41 -17.59C192.91 -18.09 193.5 -18.72 194.18 -19.47C194.87 -20.23 195.61 -20.95 196.41 -21.65C197.21 -22.35 198.05 -22.95 198.93 -23.45C199.8 -23.95 200.69 -24.2 201.58 -24.2L201.58 -24.86L192.41 -24.86L192.41 -24.2C192.8 -24.2 193.13 -24.2 193.42 -24.19C193.7 -24.18 193.94 -24.15 194.12 -24.08C194.31 -24.02 194.45 -23.91 194.54 -23.77C194.63 -23.62 194.67 -23.42 194.67 -23.16C194.67 -22.82 194.48 -22.36 194.09 -21.78C193.7 -21.21 193.2 -20.57 192.58 -19.87C191.96 -19.18 191.28 -18.46 190.54 -17.72C189.79 -16.98 189.06 -16.28 188.35 -15.62C187.63 -14.95 186.98 -14.36 186.39 -13.83C185.8 -13.3 185.35 -12.91 185.04 -12.65L185.04 -20.48C185.04 -21.24 185.08 -21.87 185.16 -22.34C185.24 -22.82 185.41 -23.2 185.67 -23.47C185.93 -23.75 186.29 -23.94 186.75 -24.05C187.22 -24.15 187.83 -24.2 188.59 -24.2L188.59 -24.86L178.03 -24.86L178.03 -24.2C178.83 -24.2 179.46 -24.15 179.92 -24.05C180.38 -23.94 180.73 -23.75 180.96 -23.46C181.2 -23.18 181.35 -22.8 181.41 -22.32C181.48 -21.84 181.51 -21.23 181.51 -20.48L181.51 -4.38C181.51 -3.62 181.48 -3 181.41 -2.52C181.35 -2.04 181.2 -1.67 180.96 -1.4C180.73 -1.13 180.38 -0.95 179.92 -0.85C179.46 -0.75 178.83 -0.71 178.03 -0.71L178.03 0L188.59 0L188.59 -0.71C187.81 -0.71 187.19 -0.75 186.72 -0.85C186.25 -0.95 185.89 -1.13 185.63 -1.4C185.38 -1.67 185.22 -2.04 185.15 -2.52C185.07 -3 185.04 -3.62 185.04 -4.38L185.04 -10.27L186.13 -11.36L193.63 -3.89C193.72 -3.79 193.85 -3.67 194 -3.5C194.16 -3.34 194.31 -3.17 194.46 -2.98C194.62 -2.79 194.75 -2.61 194.85 -2.42C194.96 -2.23 195.01 -2.08 195.01 -1.95C195.01 -1.69 194.95 -1.48 194.82 -1.31C194.69 -1.15 194.52 -1.03 194.32 -0.94C194.12 -0.85 193.89 -0.79 193.65 -0.75C193.41 -0.72 193.18 -0.71 192.97 -0.71Z M221.36 0L231.19 0L231.19 -0.71C230.5 -0.74 229.94 -0.86 229.51 -1.08C229.07 -1.3 228.7 -1.59 228.39 -1.96C228.08 -2.32 227.82 -2.74 227.6 -3.22C227.38 -3.7 227.15 -4.22 226.9 -4.79L218.27 -25.4L217.64 -25.4L208.85 -4.94C208.64 -4.45 208.42 -3.96 208.2 -3.47C207.97 -2.97 207.7 -2.52 207.38 -2.12C207.07 -1.71 206.7 -1.38 206.27 -1.12C205.85 -0.86 205.35 -0.72 204.77 -0.71L204.77 0L212.6 0L212.6 -0.71C212.36 -0.72 212.07 -0.75 211.75 -0.79C211.42 -0.83 211.11 -0.91 210.8 -1.02C210.49 -1.14 210.23 -1.29 210.02 -1.5C209.81 -1.7 209.7 -1.96 209.7 -2.29C209.7 -2.48 209.75 -2.75 209.85 -3.09C209.95 -3.43 210.07 -3.8 210.23 -4.21C210.38 -4.61 210.55 -5.03 210.73 -5.45C210.91 -5.87 211.08 -6.27 211.26 -6.65C211.44 -7.03 211.6 -7.37 211.74 -7.67C211.87 -7.97 211.98 -8.19 212.04 -8.32L221.67 -8.32C221.77 -8.09 221.94 -7.71 222.18 -7.18C222.43 -6.64 222.67 -6.07 222.91 -5.45C223.16 -4.83 223.38 -4.23 223.57 -3.65C223.77 -3.07 223.86 -2.61 223.86 -2.29C223.86 -1.95 223.78 -1.67 223.62 -1.47C223.46 -1.27 223.25 -1.11 223.01 -1C222.77 -0.88 222.5 -0.81 222.21 -0.77C221.92 -0.73 221.63 -0.71 221.36 -0.71ZM216.93 -19.78L221.16 -9.66L212.6 -9.66Z"></path></g><rect id="SvgjsRect4708" width="48.861232925952564" height="1.6606757728253052" fill="#4a4a4a" transform="translate(0, 211.9828980172196) scale(1)" light-content="false"></rect><g id="SvgjsG4709" class="text" transform="translate(231.21461179007912, 219.14900513440148) scale(1)" light-content="false" fill="#4a4a4a"><path d="M-163.45 -12.12C-164.25 -12.61 -165.19 -12.85 -166.25 -12.85C-167.15 -12.85 -167.97 -12.65 -168.73 -12.23C-169.48 -11.82 -170.05 -11.24 -170.44 -10.51L-170.48 -12.55L-172.83 -12.55C-172.81 -12.29 -172.8 -11.9 -172.8 -11.38C-172.8 -10.49 -172.83 -9.7 -172.9 -9.02L-174.05 5.38L-171.56 5.38L-170.96 -2.12C-170.58 -1.39 -170.03 -0.82 -169.31 -0.42C-168.6 -0.02 -167.77 0.17 -166.82 0.17C-165.66 0.17 -164.63 -0.12 -163.73 -0.7C-162.84 -1.28 -162.14 -2.1 -161.64 -3.15C-161.14 -4.21 -160.89 -5.42 -160.89 -6.8C-160.89 -8.03 -161.12 -9.1 -161.57 -10.01C-162.02 -10.93 -162.64 -11.63 -163.45 -12.12ZM-164.42 -3.11C-165.08 -2.23 -165.98 -1.79 -167.15 -1.79C-168.28 -1.79 -169.14 -2.15 -169.75 -2.85C-170.36 -3.56 -170.66 -4.58 -170.66 -5.93C-170.66 -7.46 -170.33 -8.66 -169.68 -9.54C-169.02 -10.42 -168.11 -10.86 -166.95 -10.86C-165.84 -10.86 -164.97 -10.5 -164.36 -9.78C-163.74 -9.05 -163.44 -8.04 -163.44 -6.73C-163.44 -5.2 -163.76 -3.99 -164.42 -3.11Z M-159.15 -1.42C-157.69 -0.36 -155.94 0.17 -153.89 0.17C-152.32 0.17 -151.06 -0.15 -150.13 -0.81C-149.2 -1.47 -148.74 -2.37 -148.74 -3.54C-148.74 -4.3 -148.94 -4.92 -149.34 -5.39C-149.73 -5.87 -150.21 -6.22 -150.77 -6.46C-151.32 -6.7 -152.04 -6.95 -152.92 -7.2C-153.6 -7.4 -154.12 -7.57 -154.48 -7.71C-154.84 -7.85 -155.14 -8.04 -155.39 -8.27C-155.64 -8.5 -155.76 -8.8 -155.76 -9.17C-155.76 -9.73 -155.53 -10.17 -155.05 -10.47C-154.58 -10.78 -153.9 -10.94 -153.02 -10.94C-151.73 -10.94 -150.47 -10.45 -149.26 -9.47L-148.36 -11.23C-148.91 -11.75 -149.6 -12.15 -150.42 -12.43C-151.24 -12.71 -152.11 -12.85 -153.02 -12.85C-154.57 -12.85 -155.8 -12.5 -156.72 -11.81C-157.64 -11.11 -158.1 -10.18 -158.1 -9.02C-158.1 -8.25 -157.91 -7.64 -157.52 -7.17C-157.13 -6.71 -156.66 -6.36 -156.1 -6.12C-155.54 -5.87 -154.82 -5.63 -153.94 -5.38C-152.96 -5.1 -152.24 -4.82 -151.78 -4.56C-151.31 -4.29 -151.08 -3.9 -151.08 -3.39C-151.08 -2.84 -151.31 -2.42 -151.78 -2.14C-152.24 -1.86 -152.93 -1.72 -153.85 -1.72C-155.37 -1.72 -156.83 -2.22 -158.23 -3.21Z M-133.84 -12.55L-136.38 -12.55L-141.17 -2.81L-144.4 -12.55L-146.97 -12.55L-142.64 -0.27L-143.21 0.77C-143.66 1.62 -144.2 2.25 -144.83 2.68C-145.46 3.1 -146.36 3.45 -147.54 3.71L-147.14 5.65C-145.72 5.42 -144.5 4.97 -143.48 4.28C-142.47 3.6 -141.58 2.52 -140.82 1.02Z M-130.48 -0.57C-129.57 -0.07 -128.5 0.17 -127.29 0.17C-126.44 0.17 -125.63 0.03 -124.86 -0.25C-124.09 -0.53 -123.43 -0.92 -122.88 -1.42L-123.53 -3.21C-124.14 -2.73 -124.73 -2.38 -125.29 -2.15C-125.84 -1.93 -126.44 -1.82 -127.09 -1.82C-128.24 -1.82 -129.13 -2.18 -129.77 -2.89C-130.41 -3.6 -130.73 -4.6 -130.73 -5.88C-130.73 -7.44 -130.38 -8.66 -129.68 -9.53C-128.98 -10.4 -128 -10.84 -126.72 -10.84C-126.07 -10.84 -125.45 -10.72 -124.86 -10.49C-124.27 -10.25 -123.66 -9.91 -123.03 -9.44L-122.11 -11.23C-122.69 -11.75 -123.38 -12.15 -124.16 -12.43C-124.95 -12.71 -125.82 -12.85 -126.77 -12.85C-128.1 -12.85 -129.25 -12.57 -130.24 -12.01C-131.23 -11.44 -131.99 -10.64 -132.52 -9.59C-133.05 -8.54 -133.32 -7.32 -133.32 -5.9C-133.32 -4.69 -133.07 -3.62 -132.58 -2.7C-132.09 -1.78 -131.39 -1.07 -130.48 -0.57Z M-109.93 -11.73C-110.66 -12.48 -111.73 -12.85 -113.14 -12.85C-114.02 -12.85 -114.82 -12.68 -115.55 -12.33C-116.27 -11.98 -116.85 -11.49 -117.28 -10.86L-116.68 -18.33L-119.2 -18.33L-120.64 0L-118.12 0L-117.55 -7.15C-117.47 -8.3 -117.11 -9.19 -116.48 -9.84C-115.85 -10.49 -114.99 -10.81 -113.91 -10.81C-112.2 -10.81 -111.35 -9.91 -111.35 -8.12C-111.35 -7.89 -111.36 -7.71 -111.37 -7.6L-111.97 0L-109.48 0L-108.86 -7.75C-108.84 -7.91 -108.83 -8.15 -108.83 -8.44C-108.83 -9.89 -109.2 -10.99 -109.93 -11.73Z M-103.28 -0.57C-102.36 -0.07 -101.3 0.17 -100.09 0.17C-98.84 0.17 -97.75 -0.11 -96.81 -0.67C-95.87 -1.24 -95.14 -2.04 -94.62 -3.09C-94.1 -4.14 -93.84 -5.36 -93.84 -6.75C-93.84 -7.98 -94.08 -9.05 -94.57 -9.96C-95.06 -10.88 -95.76 -11.59 -96.66 -12.09C-97.57 -12.6 -98.63 -12.85 -99.84 -12.85C-101.09 -12.85 -102.18 -12.57 -103.13 -12.01C-104.07 -11.44 -104.81 -10.64 -105.33 -9.59C-105.86 -8.54 -106.12 -7.32 -106.12 -5.93C-106.12 -4.7 -105.87 -3.62 -105.38 -2.7C-104.89 -1.78 -104.19 -1.07 -103.28 -0.57ZM-97.34 -3.16C-97.98 -2.25 -98.88 -1.79 -100.06 -1.79C-101.23 -1.79 -102.1 -2.14 -102.69 -2.83C-103.28 -3.52 -103.58 -4.53 -103.58 -5.85C-103.58 -7.38 -103.25 -8.6 -102.6 -9.5C-101.96 -10.41 -101.04 -10.86 -99.84 -10.86C-98.73 -10.86 -97.87 -10.51 -97.27 -9.81C-96.68 -9.12 -96.38 -8.12 -96.38 -6.83C-96.38 -5.3 -96.7 -4.08 -97.34 -3.16Z M-87.83 -4.31L-87.33 -10.61L-83.87 -10.61L-83.72 -12.55L-87.19 -12.55L-86.89 -16.57L-89.45 -15.69L-89.7 -12.55L-92.12 -12.55L-92.29 -10.61L-89.85 -10.61L-90.35 -4.09C-90.37 -3.95 -90.37 -3.76 -90.37 -3.51C-90.37 -2.32 -90.05 -1.4 -89.4 -0.77C-88.75 -0.14 -87.82 0.17 -86.61 0.17C-85.92 0.17 -85.29 0.08 -84.74 -0.1L-84.59 -2.14C-85.04 -2.01 -85.48 -1.94 -85.92 -1.94C-87.21 -1.94 -87.86 -2.6 -87.86 -3.91Z M-80.16 -6.23L-71.19 -6.23C-71.14 -6.63 -71.12 -7.01 -71.12 -7.37C-71.12 -9.13 -71.59 -10.49 -72.54 -11.43C-73.48 -12.38 -74.78 -12.85 -76.42 -12.85C-77.64 -12.85 -78.72 -12.56 -79.66 -11.98C-80.61 -11.4 -81.34 -10.58 -81.87 -9.53C-82.39 -8.47 -82.65 -7.27 -82.65 -5.9C-82.65 -4.69 -82.4 -3.62 -81.9 -2.7C-81.41 -1.78 -80.7 -1.07 -79.77 -0.57C-78.85 -0.07 -77.77 0.17 -76.52 0.17C-75.61 0.17 -74.72 0.03 -73.85 -0.25C-72.97 -0.53 -72.27 -0.92 -71.74 -1.42L-72.39 -3.19C-73.57 -2.26 -74.9 -1.79 -76.4 -1.79C-77.63 -1.79 -78.56 -2.15 -79.2 -2.86C-79.84 -3.58 -80.16 -4.59 -80.16 -5.9ZM-78.73 -10.18C-78.11 -10.73 -77.3 -11.01 -76.3 -11.01C-75.35 -11.01 -74.61 -10.72 -74.07 -10.15C-73.53 -9.58 -73.27 -8.77 -73.29 -7.72L-79.99 -7.72C-79.77 -8.8 -79.35 -9.62 -78.73 -10.18Z M-60.36 -12.68C-60.74 -12.8 -61.14 -12.85 -61.55 -12.85C-62.42 -12.85 -63.21 -12.65 -63.93 -12.26C-64.65 -11.86 -65.21 -11.3 -65.61 -10.59L-65.66 -12.55L-68 -12.55C-67.99 -12.34 -67.98 -12.01 -67.98 -11.56C-67.98 -10.99 -68.01 -10.15 -68.08 -9.02L-68.8 0L-66.29 0L-65.74 -7C-65.65 -8.06 -65.3 -8.94 -64.68 -9.63C-64.06 -10.32 -63.17 -10.66 -62.03 -10.66C-61.49 -10.66 -61.01 -10.58 -60.58 -10.41Z M-47.2 -12.55L-49.7 -12.55L-49.85 -10.51C-50.23 -11.26 -50.78 -11.84 -51.49 -12.24C-52.2 -12.65 -53.04 -12.85 -54.01 -12.85C-55.17 -12.85 -56.19 -12.56 -57.08 -11.98C-57.97 -11.4 -58.66 -10.58 -59.16 -9.53C-59.66 -8.47 -59.91 -7.26 -59.91 -5.88C-59.91 -4.65 -59.69 -3.58 -59.25 -2.67C-58.81 -1.75 -58.19 -1.05 -57.38 -0.56C-56.58 -0.07 -55.64 0.17 -54.58 0.17C-53.71 0.17 -52.92 -0.01 -52.2 -0.37C-51.48 -0.74 -50.92 -1.25 -50.52 -1.92L-50.67 0L-48.2 0ZM-51.14 -3.13C-51.8 -2.24 -52.71 -1.79 -53.86 -1.79C-54.97 -1.79 -55.84 -2.15 -56.46 -2.88C-57.08 -3.6 -57.39 -4.62 -57.39 -5.93C-57.39 -7.46 -57.06 -8.66 -56.4 -9.54C-55.73 -10.42 -54.82 -10.86 -53.66 -10.86C-52.53 -10.86 -51.66 -10.51 -51.05 -9.8C-50.45 -9.1 -50.14 -8.07 -50.14 -6.73C-50.14 -5.21 -50.48 -4.01 -51.14 -3.13Z M-34.34 -12.12C-35.14 -12.61 -36.08 -12.85 -37.14 -12.85C-38.04 -12.85 -38.86 -12.65 -39.62 -12.23C-40.38 -11.82 -40.94 -11.24 -41.33 -10.51L-41.38 -12.55L-43.72 -12.55C-43.7 -12.29 -43.69 -11.9 -43.69 -11.38C-43.69 -10.49 -43.73 -9.7 -43.79 -9.02L-44.94 5.38L-42.45 5.38L-41.85 -2.12C-41.47 -1.39 -40.92 -0.82 -40.2 -0.42C-39.49 -0.02 -38.66 0.17 -37.71 0.17C-36.55 0.17 -35.52 -0.12 -34.63 -0.7C-33.73 -1.28 -33.03 -2.1 -32.53 -3.15C-32.03 -4.21 -31.79 -5.42 -31.79 -6.8C-31.79 -8.03 -32.01 -9.1 -32.46 -10.01C-32.91 -10.93 -33.53 -11.63 -34.34 -12.12ZM-35.31 -3.11C-35.97 -2.23 -36.88 -1.79 -38.04 -1.79C-39.17 -1.79 -40.03 -2.15 -40.64 -2.85C-41.25 -3.56 -41.55 -4.58 -41.55 -5.93C-41.55 -7.46 -41.22 -8.66 -40.57 -9.54C-39.91 -10.42 -39 -10.86 -37.84 -10.86C-36.73 -10.86 -35.86 -10.5 -35.25 -9.78C-34.63 -9.05 -34.33 -8.04 -34.33 -6.73C-34.33 -5.2 -34.65 -3.99 -35.31 -3.11Z M-29.34 0L-26.83 0L-25.83 -12.55L-28.35 -12.55ZM-28.15 -18.03L-28.35 -15.39L-25.41 -15.39L-25.21 -18.03Z M-10.69 -12.55L-13.18 -12.55L-13.33 -10.51C-13.71 -11.26 -14.26 -11.84 -14.97 -12.24C-15.69 -12.65 -16.52 -12.85 -17.49 -12.85C-18.65 -12.85 -19.67 -12.56 -20.56 -11.98C-21.45 -11.4 -22.15 -10.58 -22.64 -9.53C-23.14 -8.47 -23.39 -7.26 -23.39 -5.88C-23.39 -4.65 -23.17 -3.58 -22.73 -2.67C-22.29 -1.75 -21.67 -1.05 -20.86 -0.56C-20.06 -0.07 -19.12 0.17 -18.06 0.17C-17.2 0.17 -16.4 -0.01 -15.68 -0.37C-14.96 -0.74 -14.4 -1.25 -14 -1.92L-14.15 0L-11.68 0ZM-14.62 -3.13C-15.29 -2.24 -16.19 -1.79 -17.34 -1.79C-18.45 -1.79 -19.32 -2.15 -19.94 -2.88C-20.56 -3.6 -20.87 -4.62 -20.87 -5.93C-20.87 -7.46 -20.54 -8.66 -19.88 -9.54C-19.21 -10.42 -18.3 -10.86 -17.14 -10.86C-16.01 -10.86 -15.14 -10.51 -14.54 -9.8C-13.93 -9.1 -13.63 -8.07 -13.63 -6.73C-13.63 -5.21 -13.96 -4.01 -14.62 -3.13Z M9.37 -11.73C8.64 -12.48 7.56 -12.85 6.15 -12.85C5.27 -12.85 4.47 -12.68 3.75 -12.33C3.03 -11.98 2.45 -11.49 2.02 -10.86L2.62 -18.33L0.1 -18.33L-1.35 0L1.17 0L1.74 -7.15C1.83 -8.3 2.18 -9.19 2.81 -9.84C3.45 -10.49 4.3 -10.81 5.38 -10.81C7.09 -10.81 7.95 -9.91 7.95 -8.12C7.95 -7.89 7.94 -7.71 7.92 -7.6L7.32 0L9.81 0L10.44 -7.75C10.45 -7.91 10.46 -8.15 10.46 -8.44C10.46 -9.89 10.1 -10.99 9.37 -11.73Z M25.33 -12.55L22.84 -12.55L22.27 -5.51C22.19 -4.36 21.83 -3.46 21.21 -2.81C20.59 -2.17 19.76 -1.84 18.73 -1.84C17.06 -1.84 16.22 -2.74 16.22 -4.53C16.22 -4.77 16.22 -4.94 16.24 -5.06L16.86 -12.55L14.35 -12.55L13.75 -4.91C13.73 -4.74 13.73 -4.49 13.73 -4.16C13.73 -2.75 14.09 -1.67 14.81 -0.93C15.53 -0.2 16.58 0.17 17.96 0.17C18.82 0.17 19.62 0 20.34 -0.36C21.06 -0.72 21.63 -1.23 22.05 -1.89L21.9 0L24.36 0Z M46.17 -11.75C45.5 -12.48 44.51 -12.85 43.19 -12.85C42.26 -12.85 41.43 -12.65 40.69 -12.26C39.95 -11.86 39.36 -11.28 38.91 -10.54C38.64 -11.3 38.2 -11.88 37.58 -12.27C36.95 -12.66 36.17 -12.85 35.22 -12.85C33.4 -12.85 32.06 -12.11 31.21 -10.61L31.16 -12.55L28.82 -12.55C28.84 -12.34 28.85 -12.01 28.85 -11.56C28.85 -10.96 28.81 -10.11 28.75 -9.02L28.02 0L30.54 0L31.09 -7.07C31.17 -8.29 31.5 -9.21 32.07 -9.85C32.64 -10.49 33.42 -10.81 34.4 -10.81C35.16 -10.81 35.73 -10.6 36.11 -10.16C36.48 -9.73 36.67 -9.07 36.67 -8.17C36.67 -7.94 36.66 -7.76 36.64 -7.62L36.02 0L38.54 0L39.08 -7.07C39.18 -8.29 39.52 -9.21 40.08 -9.85C40.65 -10.49 41.42 -10.81 42.4 -10.81C43.16 -10.81 43.73 -10.6 44.1 -10.18C44.48 -9.75 44.66 -9.11 44.66 -8.25C44.66 -7.98 44.66 -7.78 44.64 -7.65L44.04 0L46.53 0L47.15 -7.75C47.17 -7.91 47.18 -8.16 47.18 -8.49C47.18 -9.92 46.84 -11.01 46.17 -11.75Z M62.62 -12.55L60.13 -12.55L59.98 -10.51C59.6 -11.26 59.05 -11.84 58.34 -12.24C57.63 -12.65 56.79 -12.85 55.82 -12.85C54.66 -12.85 53.64 -12.56 52.75 -11.98C51.86 -11.4 51.17 -10.58 50.67 -9.53C50.17 -8.47 49.92 -7.26 49.92 -5.88C49.92 -4.65 50.14 -3.58 50.58 -2.67C51.02 -1.75 51.64 -1.05 52.45 -0.56C53.25 -0.07 54.19 0.17 55.25 0.17C56.11 0.17 56.91 -0.01 57.63 -0.37C58.35 -0.74 58.91 -1.25 59.31 -1.92L59.16 0L61.63 0ZM58.69 -3.13C58.02 -2.24 57.12 -1.79 55.97 -1.79C54.86 -1.79 53.99 -2.15 53.37 -2.88C52.75 -3.6 52.44 -4.62 52.44 -5.93C52.44 -7.46 52.77 -8.66 53.43 -9.54C54.1 -10.42 55.01 -10.86 56.17 -10.86C57.3 -10.86 58.17 -10.51 58.78 -9.8C59.38 -9.1 59.68 -8.07 59.68 -6.73C59.68 -5.21 59.35 -4.01 58.69 -3.13Z M76.03 -11.73C75.3 -12.48 74.22 -12.85 72.81 -12.85C71.87 -12.85 71.01 -12.65 70.26 -12.24C69.5 -11.84 68.92 -11.28 68.5 -10.56L68.45 -12.55L66.11 -12.55C66.13 -12.29 66.14 -11.9 66.14 -11.38C66.14 -10.49 66.1 -9.7 66.04 -9.02L65.31 0L67.83 0L68.4 -7.15C68.49 -8.3 68.84 -9.19 69.47 -9.84C70.11 -10.49 70.96 -10.81 72.04 -10.81C73.75 -10.81 74.61 -9.91 74.61 -8.12C74.61 -7.89 74.6 -7.71 74.58 -7.6L73.98 0L76.47 0L77.1 -7.75C77.11 -7.91 77.12 -8.15 77.12 -8.44C77.12 -9.89 76.76 -10.99 76.03 -11.73Z M80.09 0L82.6 0L83.6 -12.55L81.08 -12.55ZM81.28 -18.03L81.08 -15.39L84.02 -15.39L84.22 -18.03Z M85.57 -1.42C87.03 -0.36 88.78 0.17 90.82 0.17C92.4 0.17 93.65 -0.15 94.58 -0.81C95.51 -1.47 95.98 -2.37 95.98 -3.54C95.98 -4.3 95.78 -4.92 95.38 -5.39C94.98 -5.87 94.5 -6.22 93.95 -6.46C93.39 -6.7 92.67 -6.95 91.79 -7.2C91.11 -7.4 90.59 -7.57 90.24 -7.71C89.88 -7.85 89.58 -8.04 89.33 -8.27C89.08 -8.5 88.95 -8.8 88.95 -9.17C88.95 -9.73 89.19 -10.17 89.66 -10.47C90.14 -10.78 90.81 -10.94 91.69 -10.94C92.99 -10.94 94.24 -10.45 95.46 -9.47L96.35 -11.23C95.8 -11.75 95.12 -12.15 94.3 -12.43C93.48 -12.71 92.61 -12.85 91.69 -12.85C90.15 -12.85 88.92 -12.5 88 -11.81C87.07 -11.11 86.61 -10.18 86.61 -9.02C86.61 -8.25 86.81 -7.64 87.2 -7.17C87.59 -6.71 88.06 -6.36 88.62 -6.12C89.17 -5.87 89.89 -5.63 90.77 -5.38C91.75 -5.1 92.47 -4.82 92.94 -4.56C93.4 -4.29 93.64 -3.9 93.64 -3.39C93.64 -2.84 93.4 -2.42 92.94 -2.14C92.47 -1.86 91.79 -1.72 90.87 -1.72C89.34 -1.72 87.88 -2.22 86.49 -3.21Z M102.16 -4.31L102.65 -10.61L106.12 -10.61L106.27 -12.55L102.8 -12.55L103.1 -16.57L100.54 -15.69L100.29 -12.55L97.87 -12.55L97.7 -10.61L100.14 -10.61L99.64 -4.09C99.62 -3.95 99.62 -3.76 99.62 -3.51C99.62 -2.32 99.94 -1.4 100.59 -0.77C101.23 -0.14 102.16 0.17 103.38 0.17C104.07 0.17 104.7 0.08 105.25 -0.1L105.39 -2.14C104.95 -2.01 104.51 -1.94 104.07 -1.94C102.78 -1.94 102.13 -2.6 102.13 -3.91Z M120.17 -12.55L117.63 -12.55L112.84 -2.81L109.6 -12.55L107.04 -12.55L111.37 -0.27L110.8 0.77C110.35 1.62 109.81 2.25 109.18 2.68C108.55 3.1 107.65 3.45 106.47 3.71L106.86 5.65C108.29 5.42 109.51 4.97 110.53 4.28C111.54 3.6 112.43 2.52 113.19 1.02Z M123.53 -0.57C124.44 -0.07 125.51 0.17 126.72 0.17C127.56 0.17 128.37 0.03 129.15 -0.25C129.92 -0.53 130.58 -0.92 131.13 -1.42L130.48 -3.21C129.86 -2.73 129.28 -2.38 128.72 -2.15C128.17 -1.93 127.56 -1.82 126.92 -1.82C125.77 -1.82 124.88 -2.18 124.24 -2.89C123.6 -3.6 123.28 -4.6 123.28 -5.88C123.28 -7.44 123.63 -8.66 124.33 -9.53C125.02 -10.4 126.01 -10.84 127.29 -10.84C127.94 -10.84 128.56 -10.72 129.15 -10.49C129.74 -10.25 130.35 -9.91 130.98 -9.44L131.9 -11.23C131.32 -11.75 130.63 -12.15 129.84 -12.43C129.06 -12.71 128.19 -12.85 127.24 -12.85C125.91 -12.85 124.75 -12.57 123.77 -12.01C122.78 -11.44 122.02 -10.64 121.49 -9.59C120.96 -8.54 120.69 -7.32 120.69 -5.9C120.69 -4.69 120.93 -3.62 121.42 -2.7C121.91 -1.78 122.62 -1.07 123.53 -0.57Z M144.23 -12.55L133.97 -12.55L133.82 -10.61L140.97 -10.61L132.9 -1.74L132.77 0L143.51 0L143.66 -1.92L136.01 -1.92L144.08 -10.81Z M157.08 -11.73C156.35 -12.48 155.28 -12.85 153.87 -12.85C152.92 -12.85 152.07 -12.65 151.32 -12.24C150.56 -11.84 149.98 -11.28 149.56 -10.56L149.51 -12.55L147.17 -12.55C147.19 -12.29 147.19 -11.9 147.19 -11.38C147.19 -10.49 147.16 -9.7 147.09 -9.02L146.37 0L148.89 0L149.46 -7.15C149.54 -8.3 149.9 -9.19 150.53 -9.84C151.16 -10.49 152.02 -10.81 153.1 -10.81C154.81 -10.81 155.66 -9.91 155.66 -8.12C155.66 -7.89 155.66 -7.71 155.64 -7.6L155.04 0L157.53 0L158.15 -7.75C158.17 -7.91 158.18 -8.15 158.18 -8.44C158.18 -9.89 157.81 -10.99 157.08 -11.73Z M173.62 -12.55L171.13 -12.55L170.98 -10.51C170.6 -11.26 170.05 -11.84 169.34 -12.24C168.63 -12.65 167.79 -12.85 166.82 -12.85C165.66 -12.85 164.64 -12.56 163.75 -11.98C162.86 -11.4 162.16 -10.58 161.67 -9.53C161.17 -8.47 160.92 -7.26 160.92 -5.88C160.92 -4.65 161.14 -3.58 161.58 -2.67C162.02 -1.75 162.64 -1.05 163.45 -0.56C164.25 -0.07 165.19 0.17 166.25 0.17C167.11 0.17 167.91 -0.01 168.63 -0.37C169.35 -0.74 169.91 -1.25 170.31 -1.92L170.16 0L172.63 0ZM169.69 -3.13C169.02 -2.24 168.12 -1.79 166.97 -1.79C165.86 -1.79 164.99 -2.15 164.37 -2.88C163.75 -3.6 163.44 -4.62 163.44 -5.93C163.44 -7.46 163.77 -8.66 164.43 -9.54C165.1 -10.42 166.01 -10.86 167.17 -10.86C168.3 -10.86 169.17 -10.51 169.78 -9.8C170.38 -9.1 170.68 -8.07 170.68 -6.73C170.68 -5.21 170.35 -4.01 169.69 -3.13Z"></path></g><rect id="SvgjsRect4710" width="48.861232925952564" height="1.6606757728253052" fill="#4a4a4a" transform="translate(413.13876707404734, 211.9828980172196) scale(1)" light-content="false"></rect></g></g></svg>